<svg version="1.1" xmlns="http://www.w3.org/2000/svg" viewBox="0 0 1261.0291748046875 341" width="1261.0291748046875" height="341">
  <!-- svg-source:excalidraw -->

  <defs>
    <style class="style-fonts">
      @font-face {
        font-family: "Virgil";
        src: url("https://excalidraw.com/Virgil.woff2");
      }
      @font-face {
        font-family: "Cascadia";
        src: url("https://excalidraw.com/Cascadia.woff2");
      }
      @font-face {
        font-family: "Assistant";
        src: url("https://excalidraw.com/Assistant-Regular.woff2");
      }
    </style>

  </defs>
  <rect x="0" y="0" width="1261.0291748046875" height="341" fill="#ffffff"></rect><g stroke-linecap="round" transform="translate(10 178) rotate(0 615.5145874023438 76.5)"><path d="M0 0 C430.75 -3.42, 861.35 -3.43, 1231.03 0 M0 0 C457.05 2.01, 914.64 1.94, 1231.03 0 M1231.03 0 C1228.31 52.06, 1229.27 103.06, 1231.03 153 M1231.03 0 C1229.61 37.44, 1230.15 75.89, 1231.03 153 M1231.03 153 C762.39 157.56, 293.96 156.48, 0 153 M1231.03 153 C747.48 148.92, 264.61 148.75, 0 153 M0 153 C0.33 104.65, -0.87 58.25, 0 0 M0 153 C0.35 118.58, 0.54 85.51, 0 0" stroke="#1e1e1e" stroke-width="2" fill="none"></path></g><g transform="translate(587.4562530517578 183) rotate(0 38.05833435058594 17.5)"><text x="38.05833435058594" y="24.528" font-family="Virgil, Segoe UI Emoji" font-size="28px" fill="#1e1e1e" text-anchor="middle" style="white-space: pre;" direction="ltr" dominant-baseline="alphabetic">Tools</text></g><g stroke-linecap="round" transform="translate(10 10) rotate(0 620.5145874023438 60)"><path d="M0 0 C472.36 -2.92, 945.9 -3.57, 1241.03 0 M0 0 C319.18 1.19, 637.96 0.98, 1241.03 0 M1241.03 0 C1240.01 34.59, 1239.2 69.86, 1241.03 120 M1241.03 0 C1240.37 31.78, 1241.18 61.39, 1241.03 120 M1241.03 120 C770.26 123.63, 300.16 123.92, 0 120 M1241.03 120 C968.94 118.37, 696.68 118.4, 0 120 M0 120 C-1.45 87.42, -1.2 54.43, 0 0 M0 120 C0.35 93.73, 1.9 66.54, 0 0" stroke="#1e1e1e" stroke-width="2" fill="none"></path></g><g transform="translate(553.6979217529297 15) rotate(0 76.81666564941406 17.5)"><text x="76.81666564941406" y="24.528" font-family="Virgil, Segoe UI Emoji" font-size="28px" fill="#1e1e1e" text-anchor="middle" style="white-space: pre;" direction="ltr" dominant-baseline="alphabetic">Databases</text></g><g stroke-linecap="round" transform="translate(68.43333053588867 235) rotate(0 14.775001525878906 22.5)"><path d="M0 0 C9.42 0.04, 19.95 -0.45, 29.55 0 M0 0 C6.99 -0.01, 14.52 0.42, 29.55 0 M29.55 0 C29.28 17.95, 29.44 33.72, 29.55 45 M29.55 0 C29.14 17.53, 29.64 34.99, 29.55 45 M29.55 45 C20.14 44.32, 10.45 44.67, 0 45 M29.55 45 C22.6 44.61, 16.15 45, 0 45 M0 45 C-0.09 28.3, -0.48 9.01, 0 0 M0 45 C-0.1 33.25, -0.22 21.1, 0 0" stroke="#1e1e1e" stroke-width="2" fill="none"></path></g><g transform="translate(76.42499876022339 245) rotate(0 6.7833333015441895 12.5)"><text x="6.7833333015441895" y="17.52" font-family="Virgil, Segoe UI Emoji" font-size="20px" fill="#1e1e1e" text-anchor="middle" style="white-space: pre;" direction="ltr" dominant-baseline="alphabetic">R</text></g><g stroke-linecap="round" transform="translate(280.9833335876465 229) rotate(0 45.96666717529297 22.5)"><path d="M0 0 C26.93 -0.95, 53.31 -1.18, 91.93 0 M0 0 C23.79 0.85, 48.4 -0.6, 91.93 0 M91.93 0 C91.99 16, 93.74 33.79, 91.93 45 M91.93 0 C91.86 9.18, 91.68 19.12, 91.93 45 M91.93 45 C65.58 43.86, 41.3 42.88, 0 45 M91.93 45 C70.98 44.73, 52.22 44.06, 0 45 M0 45 C-1.07 29.72, -0.51 15.99, 0 0 M0 45 C-0.52 30.2, 1.08 13.99, 0 0" stroke="#1e1e1e" stroke-width="2" fill="none"></path></g><g transform="translate(294.85000228881836 239) rotate(0 32.099998474121094 12.5)"><text x="32.099998474121094" y="17.52" font-family="Virgil, Segoe UI Emoji" font-size="20px" fill="#1e1e1e" text-anchor="middle" style="white-space: pre;" direction="ltr" dominant-baseline="alphabetic">Python</text></g><g stroke-linecap="round" transform="translate(599.2916603088379 231) rotate(0 34.10832977294922 22.5)"><path d="M0 0 C19.63 -0.84, 40.61 -0.78, 68.22 0 M0 0 C20.25 -1.22, 39.68 -0.59, 68.22 0 M68.22 0 C70.09 16.83, 66.63 32.9, 68.22 45 M68.22 0 C68.41 11.65, 68 24.23, 68.22 45 M68.22 45 C50.48 43.27, 34.31 43.16, 0 45 M68.22 45 C52.45 44.74, 34.91 44.98, 0 45 M0 45 C-0.34 25.93, 1.2 8.62, 0 0 M0 45 C1.19 28.03, 0.42 10.82, 0 0" stroke="#1e1e1e" stroke-width="2" fill="none"></path></g><g transform="translate(609.8833236694336 241) rotate(0 23.516666412353516 12.5)"><text x="23.516666412353516" y="17.52" font-family="Virgil, Segoe UI Emoji" font-size="20px" fill="#1e1e1e" text-anchor="middle" style="white-space: pre;" direction="ltr" dominant-baseline="alphabetic">Julia</text></g><g stroke-linecap="round" transform="translate(845.2958106994629 228) rotate(0 37.14167022705078 22.5)"><path d="M0 0 C18.06 -0.66, 37.48 0.42, 74.28 0 M0 0 C28.41 0.44, 56.04 0.6, 74.28 0 M74.28 0 C73.09 9.63, 74.15 22.69, 74.28 45 M74.28 0 C73.99 10.1, 73.69 19.92, 74.28 45 M74.28 45 C52.5 42.78, 32.77 43.15, 0 45 M74.28 45 C50.28 44.5, 27.07 44.11, 0 45 M0 45 C1.08 33.76, 1.78 23.1, 0 0 M0 45 C-0.3 28.02, -0.27 10.71, 0 0" stroke="#1e1e1e" stroke-width="2" fill="none"></path></g><g transform="translate(856.962480545044 238) rotate(0 25.475000381469727 12.5)"><text x="25.475000381469727" y="17.52" font-family="Virgil, Segoe UI Emoji" font-size="20px" fill="#1e1e1e" text-anchor="middle" style="white-space: pre;" direction="ltr" dominant-baseline="alphabetic">Excel</text></g><g stroke-linecap="round" transform="translate(1081.5791511535645 228) rotate(0 50.633331298828125 22.5)"><path d="M0 0 C24.27 0.55, 50.57 2.16, 101.27 0 M0 0 C23.78 0.15, 45.38 1.03, 101.27 0 M101.27 0 C100.36 13.21, 99.53 25.55, 101.27 45 M101.27 0 C100.49 9.78, 100.84 20.6, 101.27 45 M101.27 45 C77.56 42.89, 56.54 46, 0 45 M101.27 45 C76.13 44.24, 48.41 44.51, 0 45 M0 45 C1.44 33.14, 1.44 25.97, 0 0 M0 45 C0.07 30.57, 0.19 14.98, 0 0" stroke="#1e1e1e" stroke-width="2" fill="none"></path></g><g transform="translate(1091.970817565918 238) rotate(0 40.24166488647461 12.5)"><text x="40.24166488647461" y="17.52" font-family="Virgil, Segoe UI Emoji" font-size="20px" fill="#1e1e1e" text-anchor="middle" style="white-space: pre;" direction="ltr" dominant-baseline="alphabetic">Tableau</text></g><g stroke-linecap="round"><g transform="translate(203.63750076293945 88.94060543093065) rotate(0 -74.37475038146977 71.22829046529432)"><path d="M0 0.86 C-24.52 7.25, -125.39 14.6, -147.78 38.18 C-170.17 61.76, -136.6 124.95, -134.36 142.34 M-1.46 0.27 C-26 6.8, -126.03 15.37, -148.22 39.26 C-170.42 63.14, -137.06 126.19, -134.62 143.59" stroke="#1e1e1e" stroke-width="2" fill="none"></path></g><g transform="translate(203.63750076293945 88.94060543093065) rotate(0 -74.37475038146977 71.22829046529432)"><path d="M-149.92 123.81 C-144.76 130.28, -143.9 135.11, -134.62 143.59 M-149.92 123.81 C-145.86 130.47, -141.06 134.47, -134.62 143.59" stroke="#1e1e1e" stroke-width="2" fill="none"></path></g><g transform="translate(203.63750076293945 88.94060543093065) rotate(0 -74.37475038146977 71.22829046529432)"><path d="M-133.63 118.61 C-132.47 126.35, -135.62 132.46, -134.62 143.59 M-133.63 118.61 C-134.25 126.78, -134.18 132.29, -134.62 143.59" stroke="#1e1e1e" stroke-width="2" fill="none"></path></g></g><mask></mask><g stroke-linecap="round"><g transform="translate(230.10806275555888 93) rotate(0 -11.687936098410773 67.39008577907907)"><path d="M0.97 -0.88 C-10.52 4.79, -76.65 12.26, -68.9 34.88 C-61.15 57.5, 28.33 118.01, 47.46 134.84 M0.02 1.27 C-11.54 7.06, -77.21 13.87, -69.35 36.35 C-61.48 58.84, 28.03 119.93, 47.21 136.19" stroke="#1e1e1e" stroke-width="1" fill="none"></path></g><g transform="translate(230.10806275555888 93) rotate(0 -11.687936098410773 67.39008577907907)"><path d="M23.34 128.76 C29.08 132.38, 37.5 134.66, 47.21 136.19 M23.34 128.76 C30.41 130, 37.14 132.81, 47.21 136.19" stroke="#1e1e1e" stroke-width="1" fill="none"></path></g><g transform="translate(230.10806275555888 93) rotate(0 -11.687936098410773 67.39008577907907)"><path d="M33.7 115.16 C36.43 122.94, 41.75 129.3, 47.21 136.19 M33.7 115.16 C37.53 120.65, 41.1 127.6, 47.21 136.19" stroke="#1e1e1e" stroke-width="1" fill="none"></path></g></g><mask></mask><g stroke-linecap="round"><g transform="translate(277.1812701169274 93) rotate(0 158.1828649415363 76.19204395347651)"><path d="M0.95 -0.12 C1.54 5.87, -47.99 9.46, 4.47 35.06 C56.93 60.67, 263.78 134.1, 315.72 153.49 M-0.01 -1.23 C0.42 5.05, -48.4 11.14, 4.04 36.63 C56.47 62.13, 262.58 132.51, 314.62 151.74" stroke="#1e1e1e" stroke-width="1" fill="none"></path></g><g transform="translate(277.1812701169274 93) rotate(0 158.1828649415363 76.19204395347651)"><path d="M289.62 151.91 C298.94 153.28, 308.76 150.51, 314.62 151.74 M289.62 151.91 C298.7 151.77, 309.5 151.29, 314.62 151.74" stroke="#1e1e1e" stroke-width="1" fill="none"></path></g><g transform="translate(277.1812701169274 93) rotate(0 158.1828649415363 76.19204395347651)"><path d="M295.36 135.8 C302.37 143.35, 310.01 146.71, 314.62 151.74 M295.36 135.8 C302.16 141.94, 310.71 147.78, 314.62 151.74" stroke="#1e1e1e" stroke-width="1" fill="none"></path></g></g><mask></mask><g stroke-linecap="round"><g transform="translate(344.33749771118164 75.98446490698541) rotate(0 307.73725114440913 73.94476754650731)"><path d="M0.98 0.06 C103.3 8.94, 525.84 28.65, 614.83 53.13 C703.82 77.6, 548.33 131.18, 534.9 146.92 M0.04 -0.95 C102.66 7.63, 528.21 26.81, 617.21 51.59 C706.2 76.37, 547.89 131.58, 534.02 147.73" stroke="#1e1e1e" stroke-width="1" fill="none"></path></g><g transform="translate(344.33749771118164 75.98446490698541) rotate(0 307.73725114440913 73.94476754650731)"><path d="M550.24 128.7 C544.17 134.98, 539.77 142.91, 534.02 147.73 M550.24 128.7 C546.8 132.15, 543.06 136.38, 534.02 147.73" stroke="#1e1e1e" stroke-width="1" fill="none"></path></g><g transform="translate(344.33749771118164 75.98446490698541) rotate(0 307.73725114440913 73.94476754650731)"><path d="M558.68 143.57 C549.43 144.28, 541.82 146.57, 534.02 147.73 M558.68 143.57 C553.49 143.73, 547.91 144.71, 534.02 147.73" stroke="#1e1e1e" stroke-width="1" fill="none"></path></g></g><mask></mask><g stroke-linecap="round"><g transform="translate(344.33749771118164 75.03450976982344) rotate(0 381.04903663958885 74.56874511508829)"><path d="M-0.64 1.11 C123.32 9.77, 617.8 27.38, 744.77 52 C871.75 76.61, 758.28 132.76, 761.22 148.81 M1.22 0.65 C124.92 9.42, 616.64 28.14, 743.71 53.03 C870.79 77.91, 760.47 133.96, 763.65 149.96" stroke="#1e1e1e" stroke-width="1" fill="none"></path></g><g transform="translate(344.33749771118164 75.03450976982344) rotate(0 381.04903663958885 74.56874511508829)"><path d="M771.45 126.2 C770.34 134.87, 763.9 142.84, 763.65 149.96 M771.45 126.2 C769.46 132, 766.93 138.79, 763.65 149.96" stroke="#1e1e1e" stroke-width="1" fill="none"></path></g><g transform="translate(344.33749771118164 75.03450976982344) rotate(0 381.04903663958885 74.56874511508829)"><path d="M784.9 136.77 C778.64 141.33, 767.07 145.26, 763.65 149.96 M784.9 136.77 C779.21 139.6, 773.01 143.5, 763.65 149.96" stroke="#1e1e1e" stroke-width="1" fill="none"></path></g></g><mask></mask><g stroke-linecap="round"><g transform="translate(396.33749771118164 83.79393801641572) rotate(0 -158.5183308359808 72.74903099179221)"><path d="M-0.21 -0.97 C-52.93 6.16, -264.2 19.6, -316.96 43.88 C-369.71 68.15, -316.73 127.86, -316.73 144.68 M-1.79 1.14 C-54.07 8.95, -262.11 21.17, -314.71 45.24 C-367.3 69.32, -317.01 128.86, -317.34 145.56" stroke="#1e1e1e" stroke-width="1" fill="none"></path></g><g transform="translate(396.33749771118164 83.79393801641572) rotate(0 -158.5183308359808 72.74903099179221)"><path d="M-333.62 126.6 C-331.05 129.84, -325.97 136.48, -317.34 145.56 M-333.62 126.6 C-330.17 130.77, -326.7 134.57, -317.34 145.56" stroke="#1e1e1e" stroke-width="1" fill="none"></path></g><g transform="translate(396.33749771118164 83.79393801641572) rotate(0 -158.5183308359808 72.74903099179221)"><path d="M-317.62 120.56 C-318.93 125.26, -317.79 133.39, -317.34 145.56 M-317.62 120.56 C-317.87 126.04, -318.1 131.23, -317.34 145.56" stroke="#1e1e1e" stroke-width="1" fill="none"></path></g></g><mask></mask><g stroke-linecap="round"><g transform="translate(396.33749771118164 87.97143481349303) rotate(0 -100.52074885559091 67.62678259325344)"><path d="M-0.88 -0.33 C-34.3 6.37, -183.8 16.73, -200.74 39.21 C-217.67 61.68, -118.76 118.56, -102.47 134.51 M0.86 -1.54 C-32.67 5.37, -184.18 17.48, -201.52 40.31 C-218.86 63.14, -119.62 119.52, -103.18 135.43" stroke="#1e1e1e" stroke-width="1" fill="none"></path></g><g transform="translate(396.33749771118164 87.97143481349303) rotate(0 -100.52074885559091 67.62678259325344)"><path d="M-127.19 128.46 C-121.02 131.11, -115.07 132.72, -103.18 135.43 M-127.19 128.46 C-122.14 129.28, -116.08 131.06, -103.18 135.43" stroke="#1e1e1e" stroke-width="1" fill="none"></path></g><g transform="translate(396.33749771118164 87.97143481349303) rotate(0 -100.52074885559091 67.62678259325344)"><path d="M-117.09 114.66 C-113.88 121.13, -110.78 126.64, -103.18 135.43 M-117.09 114.66 C-114.48 118.72, -110.83 123.79, -103.18 135.43" stroke="#1e1e1e" stroke-width="1" fill="none"></path></g></g><mask></mask><g stroke-linecap="round"><g transform="translate(464.80179645250155 97) rotate(0 64.47560177374908 70.8321721586891)"><path d="M0.31 -0.82 C21.96 22.72, 107.67 117.23, 129.04 140.92 M-0.99 1.36 C20.59 25.07, 106.72 118.55, 128.15 142.06" stroke="#1e1e1e" stroke-width="1" fill="none"></path></g><g transform="translate(464.80179645250155 97) rotate(0 64.47560177374908 70.8321721586891)"><path d="M105.97 130.53 C109.6 133.24, 114.75 135.04, 128.15 142.06 M105.97 130.53 C111.57 133.04, 117.04 136.13, 128.15 142.06" stroke="#1e1e1e" stroke-width="1" fill="none"></path></g><g transform="translate(464.80179645250155 97) rotate(0 64.47560177374908 70.8321721586891)"><path d="M118.57 118.97 C119.31 124.34, 121.61 128.76, 128.15 142.06 M118.57 118.97 C120.72 124.47, 122.8 130.67, 128.15 142.06" stroke="#1e1e1e" stroke-width="1" fill="none"></path></g></g><mask></mask><g stroke-linecap="round"><g transform="translate(533.420825958252 80.96690508589563) rotate(0 232.63958702087416 70.69404745705219)"><path d="M0.09 -0.75 C77.52 7.17, 403.51 23.15, 464.88 46.66 C526.25 70.16, 384.34 124.66, 368.32 140.29 M-1.32 1.47 C75.89 9.63, 401.7 24.74, 463.72 48 C525.75 71.26, 386.64 125.52, 370.82 141.03" stroke="#1e1e1e" stroke-width="1" fill="none"></path></g><g transform="translate(533.420825958252 80.96690508589563) rotate(0 232.63958702087416 70.69404745705219)"><path d="M386.83 121.83 C380.24 127.43, 375.65 133.08, 370.82 141.03 M386.83 121.83 C382.67 124.92, 379.27 129.17, 370.82 141.03" stroke="#1e1e1e" stroke-width="1" fill="none"></path></g><g transform="translate(533.420825958252 80.96690508589563) rotate(0 232.63958702087416 70.69404745705219)"><path d="M395.42 136.62 C386.14 137.41, 378.75 138.25, 370.82 141.03 M395.42 136.62 C389.51 136.55, 384.32 137.71, 370.82 141.03" stroke="#1e1e1e" stroke-width="1" fill="none"></path></g></g><mask></mask><g stroke-linecap="round"><g transform="translate(533.420825958252 79.77166807858998) rotate(0 291.1020535932637 71.81366596070495)"><path d="M-0.4 -0.38 C95.44 7.6, 478.1 23.29, 575.15 47.13 C672.19 70.98, 580.85 126.76, 581.87 142.68 M1.59 -1.62 C97.81 6.53, 480.91 23.91, 577.46 48.09 C674.02 72.28, 580.33 127.64, 580.93 143.51" stroke="#1e1e1e" stroke-width="1" fill="none"></path></g><g transform="translate(533.420825958252 79.77166807858998) rotate(0 291.1020535932637 71.81366596070495)"><path d="M588.16 119.57 C585.15 125.65, 581.73 133.72, 580.93 143.51 M588.16 119.57 C585.55 124.26, 584.13 130.35, 580.93 143.51" stroke="#1e1e1e" stroke-width="1" fill="none"></path></g><g transform="translate(533.420825958252 79.77166807858998) rotate(0 291.1020535932637 71.81366596070495)"><path d="M601.85 129.82 C594.69 132.7, 587.06 137.61, 580.93 143.51 M601.85 129.82 C596.29 132.13, 591.84 135.95, 580.93 143.51" stroke="#1e1e1e" stroke-width="1" fill="none"></path></g></g><mask></mask><g stroke-linecap="round"><g transform="translate(580.420825958252 80.34323216294706) rotate(0 -244.60682031622605 74.49738391852645)"><path d="M-0.76 -1.1 C-80.77 6.75, -398.94 21.86, -480.5 46.71 C-562.06 71.57, -488.52 131.11, -490.14 148.05 M1.05 0.94 C-79.12 8.95, -400.16 23.1, -481.62 47.75 C-563.09 72.41, -486.25 131.98, -487.72 148.87" stroke="#1e1e1e" stroke-width="1" fill="none"></path></g><g transform="translate(580.420825958252 80.34323216294706) rotate(0 -244.60682031622605 74.49738391852645)"><path d="M-506.48 132.33 C-503.35 136.3, -498.1 139.74, -487.72 148.87 M-506.48 132.33 C-503.11 136.33, -497.41 139.32, -487.72 148.87" stroke="#1e1e1e" stroke-width="1" fill="none"></path></g><g transform="translate(580.420825958252 80.34323216294706) rotate(0 -244.60682031622605 74.49738391852645)"><path d="M-491.46 124.15 C-492.37 130.21, -491.12 135.83, -487.72 148.87 M-491.46 124.15 C-491.48 129.87, -489.1 134.66, -487.72 148.87" stroke="#1e1e1e" stroke-width="1" fill="none"></path></g></g><mask></mask><g stroke-linecap="round"><g transform="translate(580.420825958252 81.89872535985228) rotate(0 -179.8769129791258 70.87163732007389)"><path d="M-0.34 -0.94 C-60.32 6.76, -315.96 21.48, -360.68 45.15 C-405.39 68.82, -284 124.93, -268.61 141.08 M1.69 1.17 C-57.86 9.1, -313.79 22.71, -358.45 46.19 C-403.1 69.67, -281.22 125.86, -266.24 142.05" stroke="#1e1e1e" stroke-width="1" fill="none"></path></g><g transform="translate(580.420825958252 81.89872535985228) rotate(0 -179.8769129791258 70.87163732007389)"><path d="M-290.52 136.09 C-286.39 136.03, -280.65 137.33, -266.24 142.05 M-290.52 136.09 C-283.7 137.06, -278.61 138.76, -266.24 142.05" stroke="#1e1e1e" stroke-width="1" fill="none"></path></g><g transform="translate(580.420825958252 81.89872535985228) rotate(0 -179.8769129791258 70.87163732007389)"><path d="M-281.01 121.87 C-279.26 125.16, -275.77 129.83, -266.24 142.05 M-281.01 121.87 C-276.6 126.35, -273.84 131.52, -266.24 142.05" stroke="#1e1e1e" stroke-width="1" fill="none"></path></g></g><mask></mask><g stroke-linecap="round"><g transform="translate(637.0757623060399 98) rotate(0 3.1978539584274586 63.89850000000001)"><path d="M-0.92 -0.95 C0.04 20.4, 4.32 105.63, 5.41 127.13 M0.8 1.17 C2.15 22.74, 6.38 106.92, 7.6 128.32" stroke="#1e1e1e" stroke-width="1" fill="none"></path></g><g transform="translate(637.0757623060399 98) rotate(0 3.1978539584274586 63.89850000000001)"><path d="M-2.19 105.32 C-1.29 110, 1.85 116.63, 7.6 128.32 M-2.19 105.32 C1.26 112.62, 5.29 119.69, 7.6 128.32" stroke="#1e1e1e" stroke-width="1" fill="none"></path></g><g transform="translate(637.0757623060399 98) rotate(0 3.1978539584274586 63.89850000000001)"><path d="M14.89 104.41 C11.14 109.21, 9.63 116.08, 7.6 128.32 M14.89 104.41 C12.81 111.94, 11.31 119.3, 7.6 128.32" stroke="#1e1e1e" stroke-width="1" fill="none"></path></g></g><mask></mask><g stroke-linecap="round"><g transform="translate(687.7541542053227 82.54030214571117) rotate(0 165.47292289733855 69.86884892714443)"><path d="M-0.99 -0.66 C54.2 7.12, 291.31 22.43, 330.18 45.75 C369.06 69.06, 248.75 123.6, 232.26 139.23 M0.69 1.6 C56.34 9.09, 293.93 20.66, 332.49 43.78 C371.05 66.89, 248.9 124.15, 232.07 140.27" stroke="#1e1e1e" stroke-width="1" fill="none"></path></g><g transform="translate(687.7541542053227 82.54030214571117) rotate(0 165.47292289733855 69.86884892714443)"><path d="M247.13 120.32 C242.51 123.38, 240.73 130.94, 232.07 140.27 M247.13 120.32 C244.2 124.86, 238.66 130.27, 232.07 140.27" stroke="#1e1e1e" stroke-width="1" fill="none"></path></g><g transform="translate(687.7541542053227 82.54030214571117) rotate(0 165.47292289733855 69.86884892714443)"><path d="M256.43 134.68 C249.84 134.45, 245.99 138.81, 232.07 140.27 M256.43 134.68 C251.09 135.5, 243.16 137.21, 232.07 140.27" stroke="#1e1e1e" stroke-width="1" fill="none"></path></g></g><mask></mask><g stroke-linecap="round"><g transform="translate(687.7541542053223 80.7597368198575) rotate(0 220.78542289733878 70.90763159007116)"><path d="M-0.76 0.29 C73.18 8.19, 369.62 23.18, 442.67 46.73 C515.73 70.28, 438.25 125.86, 437.57 141.59 M1.03 -0.61 C75 7.51, 369.67 24.1, 442.3 48 C514.94 71.9, 437.94 127.14, 436.85 142.79" stroke="#1e1e1e" stroke-width="1" fill="none"></path></g><g transform="translate(687.7541542053223 80.7597368198575) rotate(0 220.78542289733878 70.90763159007116)"><path d="M442.87 118.53 C441.91 125.6, 439.26 129.19, 436.85 142.79 M442.87 118.53 C440.67 125.02, 439.01 132.61, 436.85 142.79" stroke="#1e1e1e" stroke-width="1" fill="none"></path></g><g transform="translate(687.7541542053223 80.7597368198575) rotate(0 220.78542289733878 70.90763159007116)"><path d="M457.06 128.08 C453.06 132.98, 447.33 134.49, 436.85 142.79 M457.06 128.08 C450.78 131.8, 445.13 136.71, 436.85 142.79" stroke="#1e1e1e" stroke-width="1" fill="none"></path></g></g><mask></mask><g stroke-linecap="round"><g transform="translate(743.7541542053227 77.64369219527885) rotate(0 -321.311042951814 76.7775246841444)"><path d="M1.1 -0.51 C-102.67 7.8, -516.31 24.57, -623.41 50.13 C-730.52 75.69, -638.16 135.69, -641.51 152.87 M0.22 -1.83 C-103.64 6.64, -517.33 25.61, -624.32 51.55 C-731.3 77.49, -638.46 136.73, -641.69 153.82" stroke="#1e1e1e" stroke-width="1" fill="none"></path></g><g transform="translate(743.7541542053227 77.64369219527885) rotate(0 -321.311042951814 76.7775246841444)"><path d="M-661.21 138.19 C-657.41 141.84, -652.32 147.25, -641.69 153.82 M-661.21 138.19 C-657.28 142.51, -652.37 146.66, -641.69 153.82" stroke="#1e1e1e" stroke-width="1" fill="none"></path></g><g transform="translate(743.7541542053227 77.64369219527885) rotate(0 -321.311042951814 76.7775246841444)"><path d="M-646.6 129.31 C-646.23 135.19, -644.59 142.7, -641.69 153.82 M-646.6 129.31 C-646.28 135.74, -644.92 142.04, -641.69 153.82" stroke="#1e1e1e" stroke-width="1" fill="none"></path></g></g><mask></mask><g stroke-linecap="round"><g transform="translate(743.7541542053223 78.44361832992729) rotate(0 -251.54357710266117 73.0161908350363)"><path d="M0.08 -0.23 C-83.76 8, -431.94 24.55, -501.97 48.87 C-572.01 73.18, -433.8 129.39, -420.15 145.67 M-1.33 -1.39 C-85.34 7.03, -432.94 25.34, -502.34 50.04 C-571.74 74.74, -431.39 131.09, -417.72 146.8" stroke="#1e1e1e" stroke-width="1" fill="none"></path></g><g transform="translate(743.7541542053223 78.44361832992729) rotate(0 -251.54357710266117 73.0161908350363)"><path d="M-442.19 141.71 C-433 145.54, -424.19 144.22, -417.72 146.8 M-442.19 141.71 C-436.14 143.8, -429.75 145.17, -417.72 146.8" stroke="#1e1e1e" stroke-width="1" fill="none"></path></g><g transform="translate(743.7541542053223 78.44361832992729) rotate(0 -251.54357710266117 73.0161908350363)"><path d="M-433.19 127.17 C-427.59 136.7, -422.3 141.07, -417.72 146.8 M-433.19 127.17 C-429.67 133.23, -425.72 138.53, -417.72 146.8" stroke="#1e1e1e" stroke-width="1" fill="none"></path></g></g><mask></mask><g stroke-linecap="round"><g transform="translate(792.4576952772932 97) rotate(0 -59.67084763864659 68.71439871385087)"><path d="M1.11 -0.69 C-18.94 22.19, -100.01 113.96, -120.22 137.07 M0.24 1.56 C-19.45 24.64, -98.31 116.02, -117.97 138.42" stroke="#1e1e1e" stroke-width="1" fill="none"></path></g><g transform="translate(792.4576952772932 97) rotate(0 -59.67084763864659 68.71439871385087)"><path d="M-109.02 115.08 C-112.96 120.86, -115.15 128.09, -117.97 138.42 M-109.02 115.08 C-113 124.08, -114.51 131.6, -117.97 138.42" stroke="#1e1e1e" stroke-width="1" fill="none"></path></g><g transform="translate(792.4576952772932 97) rotate(0 -59.67084763864659 68.71439871385087)"><path d="M-96.11 126.3 C-103.99 128.75, -110.15 132.55, -117.97 138.42 M-96.11 126.3 C-104.51 131.51, -110.51 135.13, -117.97 138.42" stroke="#1e1e1e" stroke-width="1" fill="none"></path></g></g><mask></mask><g stroke-linecap="round"><g transform="translate(833.8374824523926 83.9348102217798) rotate(0 102.43125877380362 72.68658865590362)"><path d="M-0.88 -0.36 C32.94 7.2, 188.85 20.18, 204.03 44.63 C219.2 69.08, 109.2 129.41, 90.17 146.36 M0.86 -1.59 C34.96 5.67, 191.59 18.45, 206.3 42.81 C221 67.16, 108.52 127.62, 89.08 144.54" stroke="#1e1e1e" stroke-width="1" fill="none"></path></g><g transform="translate(833.8374824523926 83.9348102217798) rotate(0 102.43125877380362 72.68658865590362)"><path d="M103.74 124.29 C97.27 130.74, 93.05 139.05, 89.08 144.54 M103.74 124.29 C98.83 132.39, 92.46 140.13, 89.08 144.54" stroke="#1e1e1e" stroke-width="1" fill="none"></path></g><g transform="translate(833.8374824523926 83.9348102217798) rotate(0 102.43125877380362 72.68658865590362)"><path d="M113.33 138.45 C103.17 139.27, 95.19 142.01, 89.08 144.54 M113.33 138.45 C104.86 141.21, 94.82 143.54, 89.08 144.54" stroke="#1e1e1e" stroke-width="1" fill="none"></path></g></g><mask></mask><g stroke-linecap="round"><g transform="translate(833.8374824523926 80.88835843156005) rotate(0 157.74375877380362 70.65632078421999)"><path d="M-0.84 0.57 C51.79 8.64, 264.33 24.48, 314.86 48.1 C365.4 71.72, 304.14 126.72, 302.38 142.3 M0.93 -0.18 C54.02 7.61, 266.6 23.05, 317.25 46.5 C367.89 69.94, 306.83 124.42, 304.8 140.48" stroke="#1e1e1e" stroke-width="1" fill="none"></path></g><g transform="translate(833.8374824523926 80.88835843156005) rotate(0 157.74375877380362 70.65632078421999)"><path d="M309.06 115.85 C308.97 120.36, 308.7 125.48, 304.8 140.48 M309.06 115.85 C307.72 125.51, 306.12 134.83, 304.8 140.48" stroke="#1e1e1e" stroke-width="1" fill="none"></path></g><g transform="translate(833.8374824523926 80.88835843156005) rotate(0 157.74375877380362 70.65632078421999)"><path d="M323.9 124.35 C320.47 126.83, 316.84 130.03, 304.8 140.48 M323.9 124.35 C316.81 130.8, 309.54 136.86, 304.8 140.48" stroke="#1e1e1e" stroke-width="1" fill="none"></path></g></g><mask></mask><g stroke-linecap="round"><g transform="translate(883.8374824523926 78.5448373952214) rotate(0 -390.73724122619615 78.54137246461681)"><path d="M-0.62 0.99 C-124.56 9.3, -614.51 24.38, -744.48 50.44 C-874.45 76.51, -774.31 139.55, -780.46 157.37 M1.25 0.46 C-122.24 8.41, -611.92 22.45, -742.24 48.84 C-872.56 75.24, -774.22 140.54, -780.69 158.83" stroke="#1e1e1e" stroke-width="2" fill="none"></path></g><g transform="translate(883.8374824523926 78.5448373952214) rotate(0 -390.73724122619615 78.54137246461681)"><path d="M-798.87 141.67 C-792.95 144.22, -788.77 151.36, -780.69 158.83 M-798.87 141.67 C-792.86 147.31, -786.87 151.83, -780.69 158.83" stroke="#1e1e1e" stroke-width="2" fill="none"></path></g><g transform="translate(883.8374824523926 78.5448373952214) rotate(0 -390.73724122619615 78.54137246461681)"><path d="M-783.59 134 C-781.15 138.23, -780.49 147.15, -780.69 158.83 M-783.59 134 C-782.52 142.16, -781.47 149.16, -780.69 158.83" stroke="#1e1e1e" stroke-width="2" fill="none"></path></g></g><mask></mask><g stroke-linecap="round"><g transform="translate(883.8374824523926 79.33559951563768) rotate(0 -311.58524122619633 72.94920024218112)"><path d="M-0.9 0.99 C-104.49 8.98, -530.69 24.75, -622.15 48.95 C-713.61 73.15, -561.75 129.99, -549.66 146.18 M0.83 0.46 C-102.78 7.99, -530.7 22.44, -622.57 46.97 C-714.43 71.5, -562.58 130.93, -550.37 147.65" stroke="#1e1e1e" stroke-width="1" fill="none"></path></g><g transform="translate(883.8374824523926 79.33559951563768) rotate(0 -311.58524122619633 72.94920024218112)"><path d="M-574.78 142.21 C-567.03 145.44, -562.15 145.25, -550.37 147.65 M-574.78 142.21 C-566.65 143.03, -559.36 146.55, -550.37 147.65" stroke="#1e1e1e" stroke-width="1" fill="none"></path></g><g transform="translate(883.8374824523926 79.33559951563768) rotate(0 -311.58524122619633 72.94920024218112)"><path d="M-565.57 127.8 C-559.99 134.53, -557.4 137.92, -550.37 147.65 M-565.57 127.8 C-560.41 133.29, -556.1 141.47, -550.37 147.65" stroke="#1e1e1e" stroke-width="1" fill="none"></path></g></g><mask></mask><g stroke-linecap="round"><g transform="translate(957.6456928213393 97) rotate(0 -142.19534641066957 73.35999330761797)"><path d="M1.02 0.28 C-46.22 24.62, -236.75 122.57, -284.29 147 M0.09 -0.61 C-47.21 23.25, -237.68 120.21, -285.19 145.03" stroke="#1e1e1e" stroke-width="1" fill="none"></path></g><g transform="translate(957.6456928213393 97) rotate(0 -142.19534641066957 73.35999330761797)"><path d="M-268.21 126.67 C-271.41 131.11, -275.23 135.3, -285.19 145.03 M-268.21 126.67 C-273.87 133.13, -278.6 137.46, -285.19 145.03" stroke="#1e1e1e" stroke-width="1" fill="none"></path></g><g transform="translate(957.6456928213393 97) rotate(0 -142.19534641066957 73.35999330761797)"><path d="M-260.39 141.88 C-265.47 142.96, -271.05 143.73, -285.19 145.03 M-260.39 141.88 C-268.53 143.5, -275.71 143.07, -285.19 145.03" stroke="#1e1e1e" stroke-width="1" fill="none"></path></g></g><mask></mask><g stroke-linecap="round"><g transform="translate(1000.6373443049815 97) rotate(0 -4.271268728199175 73.48880247673901)"><path d="M0.1 0.28 C11.4 5.43, 81.66 6.89, 68.82 31.16 C55.98 55.43, -52.54 126.42, -76.96 145.89 M-1.31 -0.62 C9.76 4.72, 80.65 8.24, 67.94 32.78 C55.23 57.32, -53.32 127.77, -77.59 146.64" stroke="#1e1e1e" stroke-width="2" fill="none"></path></g><g transform="translate(1000.6373443049815 97) rotate(0 -4.271268728199175 73.48880247673901)"><path d="M-63.4 126.05 C-68.34 134.2, -74 142.35, -77.59 146.64 M-63.4 126.05 C-66.24 129.92, -69.07 134.68, -77.59 146.64" stroke="#1e1e1e" stroke-width="2" fill="none"></path></g><g transform="translate(1000.6373443049815 97) rotate(0 -4.271268728199175 73.48880247673901)"><path d="M-53.49 139.98 C-62.27 142.79, -71.75 145.57, -77.59 146.64 M-53.49 139.98 C-58.35 141.02, -63.26 142.86, -77.59 146.64" stroke="#1e1e1e" stroke-width="2" fill="none"></path></g></g><mask></mask><g stroke-linecap="round"><g transform="translate(1019.7874794006348 89.67290568928638) rotate(0 85.1272602996828 66.92454715535678)"><path d="M0.13 0.16 C28.54 6.32, 147.5 14.79, 170.52 37.24 C193.55 59.69, 143.55 118.89, 138.3 134.87 M-1.26 -0.8 C27 5.44, 146.62 15.9, 169.72 38.21 C192.81 60.52, 142.35 117.12, 137.3 133.07" stroke="#1e1e1e" stroke-width="1" fill="none"></path></g><g transform="translate(1019.7874794006348 89.67290568928638) rotate(0 85.1272602996828 66.92454715535678)"><path d="M141.75 108.47 C140.7 116.5, 137.25 122.89, 137.3 133.07 M141.75 108.47 C140.43 117.81, 138.05 127.35, 137.3 133.07" stroke="#1e1e1e" stroke-width="1" fill="none"></path></g><g transform="translate(1019.7874794006348 89.67290568928638) rotate(0 85.1272602996828 66.92454715535678)"><path d="M156.52 117.09 C150.9 122.48, 142.9 126.21, 137.3 133.07 M156.52 117.09 C149.49 123.02, 141.41 129.24, 137.3 133.07" stroke="#1e1e1e" stroke-width="1" fill="none"></path></g></g><mask></mask><g stroke-linecap="round" transform="translate(204.63750076293945 47) rotate(0 69.3499984741211 22.5)"><path d="M11.25 0 C35.55 -2.45, 61.33 0.81, 127.45 0 C136.69 0.39, 136.52 5.74, 138.7 11.25 C142.17 19.13, 137.06 23.14, 138.7 33.75 C139.73 38.41, 136.93 48.35, 127.45 45 C85.87 41.96, 46.45 48.95, 11.25 45 C6.38 44.82, -1.8 43.93, 0 33.75 C-2.98 29.93, 0 24.04, 0 11.25 C-1.71 2.96, 1.98 -2.75, 11.25 0" stroke="none" stroke-width="0" fill="#ffec99"></path><path d="M11.25 0 C55.67 -1.05, 96.37 -1.43, 127.45 0 M11.25 0 C43.3 -0.46, 74.52 -0.11, 127.45 0 M127.45 0 C135.02 -0.27, 137.79 2.66, 138.7 11.25 M127.45 0 C133.63 -0.95, 137.45 3.41, 138.7 11.25 M138.7 11.25 C137.4 19.58, 138.66 26.38, 138.7 33.75 M138.7 11.25 C138.4 17.31, 137.85 24.72, 138.7 33.75 M138.7 33.75 C139.21 39.88, 135.11 43.75, 127.45 45 M138.7 33.75 C137.94 40.53, 133.5 42.9, 127.45 45 M127.45 45 C94.27 42.46, 63.14 42.83, 11.25 45 M127.45 45 C89.87 44.32, 53.08 43.93, 11.25 45 M11.25 45 C2.28 44.4, -1.39 42.19, 0 33.75 M11.25 45 C2.56 46.9, -1.73 43.15, 0 33.75 M0 33.75 C0.42 25.31, 0.21 16.88, 0 11.25 M0 33.75 C0.29 28.47, 0.44 24.2, 0 11.25 M0 11.25 C-0.64 3.63, 5.48 1.65, 11.25 0 M0 11.25 C0.9 5.84, 4.54 1.03, 11.25 0" stroke="#1e1e1e" stroke-width="1" fill="none"></path></g><g transform="translate(216.85416412353516 57) rotate(0 57.13333511352539 12.5)"><text x="57.13333511352539" y="17.52" font-family="Virgil, Segoe UI Emoji" font-size="20px" fill="#1e1e1e" text-anchor="middle" style="white-space: pre;" direction="ltr" dominant-baseline="alphabetic">PostgreSQL</text></g><g stroke-linecap="round" transform="translate(397.33749771118164 51) rotate(0 67.54166412353516 22.5)"><path d="M11.25 0 C39.34 1.81, 71.17 2.26, 123.83 0 C129.16 1.99, 131.89 5.48, 135.08 11.25 C133.62 18.59, 136.48 18.33, 135.08 33.75 C137.07 44.6, 133.2 47.68, 123.83 45 C88.84 46.67, 54.93 42.9, 11.25 45 C1.95 47.68, -0.8 44.39, 0 33.75 C0.64 28.37, -1.42 16.61, 0 11.25 C-1.77 1, 5.82 -3.25, 11.25 0" stroke="none" stroke-width="0" fill="#ffec99"></path><path d="M11.25 0 C51.96 -0.48, 93.84 1.54, 123.83 0 M11.25 0 C40.03 0.47, 68.93 0.95, 123.83 0 M123.83 0 C130.42 -1.09, 133.94 2.93, 135.08 11.25 M123.83 0 C130.08 -0.34, 135.08 5.4, 135.08 11.25 M135.08 11.25 C134.72 21.45, 135.02 27.31, 135.08 33.75 M135.08 11.25 C134.31 19.81, 135.3 28.23, 135.08 33.75 M135.08 33.75 C135.24 40, 130.67 44.37, 123.83 45 M135.08 33.75 C133.63 39.15, 130.69 43.19, 123.83 45 M123.83 45 C97.6 42.8, 74.06 45.91, 11.25 45 M123.83 45 C95.79 44.21, 65.15 44.49, 11.25 45 M11.25 45 C2.36 45.94, -1.04 42.9, 0 33.75 M11.25 45 C2.02 46.9, 1.95 41.79, 0 33.75 M0 33.75 C0.21 27.26, -1.86 19.13, 0 11.25 M0 33.75 C0.3 24.96, -0.37 16.34, 0 11.25 M0 11.25 C1.73 5.4, 4.53 1.82, 11.25 0 M0 11.25 C0.79 4.78, 1.91 -1.6, 11.25 0" stroke="#1e1e1e" stroke-width="1" fill="none"></path></g><g transform="translate(409.9041633605957 61) rotate(0 54.974998474121094 12.5)"><text x="54.974998474121094" y="17.52" font-family="Virgil, Segoe UI Emoji" font-size="20px" fill="#1e1e1e" text-anchor="middle" style="white-space: pre;" direction="ltr" dominant-baseline="alphabetic">SQL Server</text></g><g stroke-linecap="round" transform="translate(581.420825958252 52) rotate(0 52.666664123535156 22.5)"><path d="M11.25 0 C30.2 0.42, 43.5 2.01, 94.08 0 C98.39 1.73, 102.47 7.03, 105.33 11.25 C106.16 17.11, 107.11 32.01, 105.33 33.75 C107.2 43.93, 102.22 44.3, 94.08 45 C79.7 46.3, 58.26 49.16, 11.25 45 C2.95 48.14, 2.28 38.62, 0 33.75 C-1.75 24.69, -1.81 14.45, 0 11.25 C2.07 0.5, 2.32 1.65, 11.25 0" stroke="none" stroke-width="0" fill="#ffec99"></path><path d="M11.25 0 C34.52 1.66, 58.01 1.05, 94.08 0 M11.25 0 C28.11 0.38, 44.44 -0.03, 94.08 0 M94.08 0 C100.44 -0.82, 104.24 3.45, 105.33 11.25 M94.08 0 C101.58 1.65, 107.19 2.06, 105.33 11.25 M105.33 11.25 C105.42 18.71, 107.16 27.96, 105.33 33.75 M105.33 11.25 C105.42 15.5, 105.25 20.5, 105.33 33.75 M105.33 33.75 C104.67 40.62, 100.32 43.17, 94.08 45 M105.33 33.75 C104.69 39.44, 99.82 43.18, 94.08 45 M94.08 45 C76.53 46.31, 57.17 44.61, 11.25 45 M94.08 45 C70.05 44.23, 46.79 45, 11.25 45 M11.25 45 C2.71 46.65, -1.5 42.9, 0 33.75 M11.25 45 C5.7 45.54, 0.19 41.79, 0 33.75 M0 33.75 C-1.84 26, 1.68 20.17, 0 11.25 M0 33.75 C-0.4 28.2, 0.78 23.6, 0 11.25 M0 11.25 C0.78 5.57, 4.44 0.9, 11.25 0 M0 11.25 C-1.84 2.15, 2.79 -0.79, 11.25 0" stroke="#1e1e1e" stroke-width="1" fill="none"></path></g><g transform="translate(591.5374908447266 62) rotate(0 42.54999923706055 12.5)"><text x="42.54999923706055" y="17.52" font-family="Virgil, Segoe UI Emoji" font-size="20px" fill="#1e1e1e" text-anchor="middle" style="white-space: pre;" direction="ltr" dominant-baseline="alphabetic">MariaDB</text></g><g stroke-linecap="round" transform="translate(744.7541542053223 51) rotate(0 44.041664123535156 22.5)"><path d="M11.25 0 C28.64 1.86, 47.19 1.6, 76.83 0 C81.47 3.28, 91.21 1.92, 88.08 11.25 C90.18 22.84, 90.07 30.41, 88.08 33.75 C88.72 40.55, 80.93 45.77, 76.83 45 C48.83 47.62, 23.63 48.08, 11.25 45 C6.03 42.37, 2.43 41.6, 0 33.75 C-1.58 22.5, 2.27 13.5, 0 11.25 C-1.43 5.4, 5.9 -2.65, 11.25 0" stroke="none" stroke-width="0" fill="#ffec99"></path><path d="M11.25 0 C28 0.34, 44.57 -0.54, 76.83 0 M11.25 0 C26.41 -0.45, 41.91 -0.32, 76.83 0 M76.83 0 C83.24 -0.3, 88.08 5.18, 88.08 11.25 M76.83 0 C86.19 -1.69, 89.91 3.52, 88.08 11.25 M88.08 11.25 C89.95 19.48, 86.48 26.97, 88.08 33.75 M88.08 11.25 C88.22 16.76, 87.81 23.21, 88.08 33.75 M88.08 33.75 C86.82 39.42, 83.77 43.43, 76.83 45 M88.08 33.75 C86.32 39.43, 82.44 43.73, 76.83 45 M76.83 45 C60.49 45.74, 45.47 47.46, 11.25 45 M76.83 45 C60.23 45.28, 44.5 45.63, 11.25 45 M11.25 45 C2.25 46.65, 1.69 41.72, 0 33.75 M11.25 45 C3.94 45.54, 0.25 41.56, 0 33.75 M0 33.75 C1.91 26.91, -0.92 19.95, 0 11.25 M0 33.75 C0.94 28.1, 0.46 21.7, 0 11.25 M0 11.25 C0.69 4.65, 2.15 -1.39, 11.25 0 M0 11.25 C-0.96 2.96, 1.63 -0.64, 11.25 0" stroke="#1e1e1e" stroke-width="1" fill="none"></path></g><g transform="translate(757.4541511535645 61) rotate(0 31.34166717529297 12.5)"><text x="31.34166717529297" y="17.52" font-family="Virgil, Segoe UI Emoji" font-size="20px" fill="#1e1e1e" text-anchor="middle" style="white-space: pre;" direction="ltr" dominant-baseline="alphabetic">Oracle</text></g><g stroke-linecap="round" transform="translate(884.8374824523926 51) rotate(0 66.9749984741211 22.5)"><path d="M11.25 0 C42.7 0.62, 77.68 2.17, 122.7 0 C133.33 -1.83, 136.33 4.78, 133.95 11.25 C136.04 18.91, 134.81 20.5, 133.95 33.75 C130.54 42.02, 133.78 47.63, 122.7 45 C89.03 49.63, 59.23 43.86, 11.25 45 C6.18 45.35, 2.79 39.54, 0 33.75 C2.27 24.24, -1.23 22.88, 0 11.25 C2.15 1.1, 5.48 -3.49, 11.25 0" stroke="none" stroke-width="0" fill="#ffec99"></path><path d="M11.25 0 C50.55 -0.53, 92.5 -0.37, 122.7 0 M11.25 0 C42.58 0.19, 74.52 0.46, 122.7 0 M122.7 0 C130.2 1.43, 135.56 2.28, 133.95 11.25 M122.7 0 C132.03 -0.23, 135.83 3.87, 133.95 11.25 M133.95 11.25 C132.54 15.33, 133.61 22.85, 133.95 33.75 M133.95 11.25 C133.64 16.14, 133.34 20.75, 133.95 33.75 M133.95 33.75 C133.39 39.68, 128.66 43.42, 122.7 45 M133.95 33.75 C132.06 39.98, 128.73 45.55, 122.7 45 M122.7 45 C78.67 46.93, 34.24 43.61, 11.25 45 M122.7 45 C92.07 46.35, 61.73 46.35, 11.25 45 M11.25 45 C5.44 45.47, 0.16 41.72, 0 33.75 M11.25 45 C4 45.31, 0.51 39.17, 0 33.75 M0 33.75 C-1.32 28.55, -0.44 21.3, 0 11.25 M0 33.75 C0.19 28.05, 0.15 20.98, 0 11.25 M0 11.25 C-1.6 2.36, 2.92 -0.69, 11.25 0 M0 11.25 C-2.12 3.11, 3.71 1.11, 11.25 0" stroke="#1e1e1e" stroke-width="1" fill="none"></path></g><g transform="translate(903.5958137512207 61) rotate(0 48.21666717529297 12.5)"><text x="48.21666717529297" y="17.52" font-family="Virgil, Segoe UI Emoji" font-size="20px" fill="#1e1e1e" text-anchor="middle" style="white-space: pre;" direction="ltr" dominant-baseline="alphabetic">Clickhouse</text></g></svg>
